Coordinates
version=1
nRows=54
nColumns=12
inDegrees=yes

Units are S.I. units (second, meters, Newtons, ...)
Angles are in degrees

endheader
time	SC_y	SC_z	SC_x	AC_y	AC_z	AC_x	GH_y	GH_z	GH_yy	EL_x	PS_y
       0.0              -34.47          28.09          46.42          51.66         -7.162          14.04         -57.28         -13.46         -68.97          16.92          35.81
   0.03137              -34.47          28.09          46.42          51.66         -7.163          14.04         -57.28         -13.46         -68.98          16.93          35.81
   0.06274              -34.47          28.09          46.43          51.66         -7.164          14.04         -57.27         -13.46          -69.0          16.95          35.81
   0.09411              -34.48          28.08          46.43          51.65         -7.165          14.03         -57.26         -13.46         -69.02          16.97          35.82
    0.1255              -34.48          28.08          46.44          51.65         -7.167          14.03         -57.25         -13.46         -69.03          16.99          35.82
    0.1568              -34.49          28.08          46.45          51.65         -7.169          14.02         -57.25         -13.45         -69.05          17.01          35.82
    0.1882              -34.49          28.07          46.46          51.64          -7.17          14.02         -57.24         -13.45         -69.07          17.03          35.83
    0.2196               -34.5          28.07          46.46          51.64         -7.172          14.01         -57.23         -13.45          -69.1          17.05          35.83
    0.2509               -34.5          28.07          46.47          51.63         -7.174          14.01         -57.22         -13.45         -69.12          17.07          35.83
    0.2823              -34.51          28.06          46.48          51.63         -7.176           14.0         -57.21         -13.45         -69.15           17.1          35.84
    0.3137              -34.51          28.05          46.49          51.62         -7.178          13.99          -57.2         -13.45         -69.17          17.13          35.84
    0.3451              -34.52          28.05           46.5          51.62         -7.181          13.98         -57.18         -13.45          -69.2          17.16          35.85
    0.3764              -34.53          28.04          46.51          51.61         -7.183          13.98         -57.17         -13.45         -69.24          17.19          35.85
    0.4078              -34.53          28.04          46.53           51.6         -7.186          13.97         -57.15         -13.44         -69.27          17.23          35.86
    0.4392              -34.54          28.03          46.54           51.6         -7.189          13.96         -57.14         -13.44         -69.31          17.26          35.86
    0.4705              -34.55          28.02          46.55          51.59         -7.193          13.95         -57.12         -13.44         -69.35          17.31          35.87
    0.5019              -34.56          28.01          46.57          51.58         -7.196          13.94          -57.1         -13.44         -69.39          17.35          35.88
    0.5333              -34.57           28.0          46.59          51.57           -7.2          13.93         -57.08         -13.44         -69.44           17.4          35.88
    0.5646              -34.58          27.99          46.61          51.56         -7.204          13.91         -57.06         -13.43         -69.49          17.45          35.89
     0.596               -34.6          27.98          46.63          51.55         -7.209           13.9         -57.04         -13.43         -69.55          17.51           35.9
    0.6274              -34.61          27.97          46.65          51.54         -7.214          13.88         -57.01         -13.43         -69.61          17.57          35.91
    0.6587              -34.63          27.96          46.67          51.52          -7.22          13.87         -56.98         -13.42         -69.68          17.64          35.92
    0.6901              -34.64          27.94           46.7          51.51         -7.226          13.85         -56.95         -13.42         -69.76          17.72          35.93
    0.7215              -34.66          27.93          46.73          51.49         -7.233          13.83         -56.91         -13.42         -69.84          17.81          35.95
    0.7528              -34.68          27.91          46.76          51.47         -7.241           13.8         -56.87         -13.41         -69.94           17.9          35.96
    0.7842              -34.71          27.89           46.8          51.45         -7.249          13.78         -56.83         -13.41         -70.04          18.01          35.98
    0.8156              -34.73          27.87          46.84          51.43         -7.259          13.75         -56.78          -13.4         -70.16          18.13           36.0
    0.8469              -34.76          27.84          46.89          51.41          -7.27          13.71         -56.72          -13.4          -70.3          18.26          36.02
    0.8783              -34.79          27.81          46.94          51.38         -7.282          13.68         -56.66         -13.39         -70.45          18.42          36.04
    0.9097              -34.83          27.78          47.01          51.34         -7.296          13.64         -56.59         -13.38         -70.62          18.59          36.07
    0.9411              -34.87          27.74          47.07          51.31         -7.311          13.59         -56.51         -13.37         -70.81          18.79           36.1
    0.9724              -34.92           27.7          47.15          51.26          -7.33          13.53         -56.41         -13.36         -71.03          19.01          36.14
     1.004              -34.98          27.65          47.25          51.21          -7.35          13.47         -56.31         -13.35         -71.29          19.27          36.18
     1.035              -35.05           27.6          47.35          51.15         -7.375           13.4         -56.18         -13.33         -71.59          19.58          36.23
     1.067              -35.13          27.53          47.48          51.09         -7.403          13.31         -56.03         -13.32         -71.94          19.93          36.28
     1.098              -35.22          27.45          47.63          51.01         -7.437          13.21         -55.86          -13.3         -72.35          20.35          36.35
     1.129              -35.33          27.36           47.8          50.91         -7.477          13.09         -55.65         -13.27         -72.85          20.85          36.43
     1.161              -35.46          27.25          48.01           50.8         -7.525          12.94         -55.41         -13.25         -73.43          21.44          36.52
     1.192              -35.61          27.11          48.26          50.66         -7.582          12.76         -55.11         -13.21         -74.15          22.16          36.63
     1.223              -35.81          26.95          48.57          50.49         -7.653          12.55         -54.74         -13.17         -75.02          23.04          36.77
     1.255              -36.04          26.74          48.96          50.28          -7.74          12.28         -54.29         -13.12         -76.09          24.13          36.94
     1.286              -36.34          26.49          49.43          50.02         -7.849          11.95         -53.73         -13.06         -77.43          25.49          37.16
     1.317              -36.71          26.17          50.04           49.7         -7.986          11.54         -53.03         -12.98         -79.11          27.19          37.42
     1.349              -37.19          25.76           50.8          49.28          -8.16          11.01         -52.13         -12.88         -81.26          29.37          37.77
      1.38               -37.8          25.24          51.78          48.75         -8.383          10.33         -50.98         -12.75          -84.0          32.14           38.2
     1.412              -38.58          24.58          53.03          48.07         -8.669          9.463          -49.5         -12.58         -87.52          35.71          38.76
     1.443              -39.57          23.72          54.64           47.2         -9.035          8.352         -47.61         -12.37         -92.02          40.26          39.48
     1.474              -40.83          22.65          56.65          46.11         -9.494          6.956         -45.24          -12.1         -97.67          45.99          40.38
     1.506              -42.35          21.35          59.11          44.77         -10.05          5.255         -42.35         -11.77         -104.6          52.97          41.48
     1.537              -44.12          19.83          61.96          43.23          -10.7          3.284          -39.0         -11.39         -112.6          61.06          42.75
     1.568              -46.04          18.19          65.04          41.55         -11.41          1.148         -35.37         -10.98         -121.2          69.82          44.13
       1.6              -47.95          16.55          68.13          39.88         -12.11        -0.9866         -31.74         -10.57         -129.9          78.58           45.5
     1.631              -49.72          15.04          70.97          38.33         -12.76         -2.958         -28.39          -10.2         -137.8          86.67          46.78
     1.663              -51.25          13.73          73.43           37.0         -13.32          -4.66          -25.5         -9.869         -144.7          93.64          47.87
